# xmcd CD database file
# Copyright (C) 1993-1998 Ti Kan
#
# Track frame offsets:
#	150
#	12132
#	23087
#	35530
#	48877
#	59690
#	71092
#	84865
#	94365
#	107392
#	121212
#	132132
#	143130
#	156270
#	168155
#	179780
#	187952
#	200720
#
# Disc length: 2834 seconds
#
# Revision: 1
# Processed by: cddbd v1.4b41PL1 Copyright (c) Steve Scherf et al.
# Submitted via: CDValet v3.31 - Copyright (c) 1997 Greg Leichner
#
DISCID=f30b1012
DTITLE=The Staple Singers - Freedom Highway
DYEAR=1900
DGENRE=
TTITLE0=Will The Circle Be Unbroken
TTITLE1=Move Along Train
TTITLE2=Are You Sure
TTITLE3=Wade In The Water
TTITLE4=If I Could Hear My Mother Again
TTITLE5=Glory, Glory, Hallelujah!
TTITLE6=The Lord's Prayer
TTITLE7=Jacob's Ladder
TTITLE8=Why? (Am I Treated So Bad)
TTITLE9=Praying Time
TTITLE10=For What It's Worth
TTITLE11=Hammer and Nails
TTITLE12=Freedom Highway
TTITLE13=What You Gonna Do?
TTITLE14=Samson and Delilah
TTITLE15=Nobody's Fault But Mine
TTITLE16=Be Careful Of Stones That You Throw
TTITLE17=This Train
EXTD=Columbia, 1991\n
EXTT0=
EXTT1=
EXTT2=
EXTT3=
EXTT4=
EXTT5=
EXTT6=
EXTT7=
EXTT8=
EXTT9=
EXTT10=
EXTT11=
EXTT12=
EXTT13=
EXTT14=
EXTT15=
EXTT16=
EXTT17=
PLAYORDER=
